<svg xmlns="http://www.w3.org/2000/svg" viewBox="0 0 714 714"><defs><style>.eb2d1db1-28b2-49df-a517-4eb20ab744b5{fill:none;}.b08bbbe0-dcde-4417-85f0-574bb93741b9{fill:#000000;}.b5435d61-6cc3-4943-8203-f0a0080593dc{fill:none;stroke:#000000;stroke-linecap:round;stroke-miterlimit:10;stroke-width:39px;}</style></defs><g id="a714bad2-1c3d-417f-b029-9a98fba25d3e" data-name="Livello 2"><g id="e190ad61-a7e9-4ed6-882b-c8e4b99039a9" data-name="Livello 2"><circle class="eb2d1db1-28b2-49df-a517-4eb20ab744b5" cx="357" cy="357" r="357"/><path class="b08bbbe0-dcde-4417-85f0-574bb93741b9" d="M255.32,374.23a6.74,6.74,0,0,1,2.09-1.66c.58-.36,1.28-.77,2.08-1.2s1.76-.79,2.79-1.23,2.17-.9,3.39-1.39,2.51-1.06,3.94-1.45l4.5-1.35,2.41-.7,1.24-.35,1.29-.28c13.81-3.3,32-4.59,49.24-2.63,17.28,1.64,33.6,5.87,45.53,9.39,3,.85,5.7,1.76,8.1,2.52s4.48,1.46,6.18,2.06l5.34,1.85-5.7-.57-3-.3-3.54-.29c-2.53-.21-5.38-.46-8.49-.62-12.43-.77-29.05-1.15-45.17.77l-3,.33c-1,.13-2,.3-3,.45-2,.32-4,.6-5.9.94-3.86.84-7.67,1.49-11.25,2.54a142.73,142.73,0,0,0-19.07,6.41L278,390.8c-2.11,1.11-3.95,2.11-5.52,2.89-.77.41-1.5.71-2.1,1.07s-1.13.63-1.58.86a3.93,3.93,0,0,1-1.69.61c-1.73.25-6-2.44-9.55-8.41a21.71,21.71,0,0,1-2.92-8.53C254.4,376.81,254.76,374.89,255.32,374.23Z"/><path class="b08bbbe0-dcde-4417-85f0-574bb93741b9" d="M297.28,315.47a7.86,7.86,0,0,1,2.34-1.14c.63-.23,1.37-.5,2.23-.76s1.83-.47,2.9-.72l3.49-.79c1.26-.27,2.59-.6,4-.79l4.54-.67c1.59-.21,3.24-.5,5-.61a204,204,0,0,1,48.79,1.53,387.7,387.7,0,0,1,45.7,9.7c6.08,1.63,11.1,3,14.61,4.07l5.5,1.6-5.79-.57-6.65-.63c-2.57-.24-5.46-.52-8.63-.76a425.28,425.28,0,0,0-46.26-1.63,223.94,223.94,0,0,0-45.19,5.53L315.69,331l-6.31,1.91c-.89.27-1.7.47-2.4.7s-1.31.43-1.82.58a5.07,5.07,0,0,1-1.87.37c-1.82.07-5.31-2.5-7.17-7.74S295.9,316.43,297.28,315.47Z"/><path class="b5435d61-6cc3-4943-8203-f0a0080593dc" d="M112.94,220.24s131.19,0,155.11-128.52c2.49-13.37-1-30.89-7.2-42.68C250.54,29.44,227,23,206.57,29.44A59.09,59.09,0,0,0,174.85,54.6c-28.34,45.53,28.82,83.88,64.22,99.88,101.8,46,221,38.65,321.13-7.94a426.52,426.52,0,0,0,61.6-35.13C562.56,146.85,503,182.53,450.71,227.61c-58.51,50.44-101,111.78-147.88,172.3-32.16,41.56-63.79,83.51-96.07,125q-24.48,31.44-49.58,62.42C141.3,606.81,104.08,647.15,105,647c.56.17,62.19-76.5,99.65-108.39,29.85-25.42,62.67-48.18,99.65-61.23,21.79-7.69,45-11.79,68.18-10.94,13.21.48,27.17,0,39.88,4,10.12,3.21,19.65,10,23.59,19.83,9.49,23.75-9.11,55.22-27,69.83-8.71,7.11-20.25,12.51-31,9.29-9.62-2.87-16.31-12.26-18.2-22.12s.32-20.08,3.8-29.5c17.65-47.68,66.57-71,108.68-93A1285.3,1285.3,0,0,1,681,338.37"/></g></g></svg>