<svg xmlns="http://www.w3.org/2000/svg" viewBox="0 0 290.1 103.5"><defs><style>.cls-1{fill-rule:evenodd;}</style></defs><g id="Livello_2" data-name="Livello 2"><g id="Livello_1-2" data-name="Livello 1"><path class="cls-1" d="M74.06,55.46,73,54.4c-1.76-1.81-1.84-1.82-3.28.25-3.9,5.65-5,12-4.8,18.72a22.46,22.46,0,0,0,3,11,7.12,7.12,0,0,0,8.41,3.46,8.26,8.26,0,0,0,5.47-5,18,18,0,0,0,.92-11.28c-1.23-6.26-4.45-11.44-8.69-16.08m175.2-20.4c-.29-.71-1-.91-1.51-1.23-11.17-6.43-21.14-14.52-31.14-22.58A14.21,14.21,0,0,1,213,7.34a4.76,4.76,0,0,1-.1-5.22A4.7,4.7,0,0,1,217.7,0a14.44,14.44,0,0,1,4.18,1.11c22.32,9.1,43.22,20.61,61.41,36.64a27.17,27.17,0,0,1,5,5.34c3.63,5.54,1.65,11.92-4.49,13.93C269.94,61.57,256.06,66,242,69.74a213.12,213.12,0,0,1-30,5.46,21.13,21.13,0,0,1-6.15,0c-1.84-.31-3.49-1-4-3s.45-3.56,1.91-4.82a17.37,17.37,0,0,1,6-3.17c7-2.37,14.05-4.22,21.1-6.25,6.46-1.86,12.94-3.67,19.41-5.5.52-.15,1-.35,1.82-.61a4.3,4.3,0,0,0-2.22-.53c-14.44-1.88-29-2.49-43.48-4.07-20.33-2.21-40.61-5-60.88-7.66-12.13-1.62-24.29-2.91-36.56-2.06-8.38.59-16.54,2.11-24.2,5.71-1.84.87-1.85.87-.41,2.3,7.22,7.16,12.28,15.5,13.76,25.7,1.22,8.43-.14,16.36-5.49,23.2a23.42,23.42,0,0,1-37.9-1.31A35.07,35.07,0,0,1,49,78.87c-2.08-12.19-.37-23.7,6.62-34.14.88-1.32.36-1.65-.82-2C44.45,39.4,35.36,41.58,27.51,49,15.71,60.05,8.9,73.43,9,89.92a45.51,45.51,0,0,0,.47,5.48c.28,2.24-.39,3.64-1.9,4.15s-3.14-.24-4.2-2.19A28.58,28.58,0,0,1,0,84.22c-.27-14.61,4-27.7,13.53-38.93A52.81,52.81,0,0,1,26.9,33.58c11.68-6.85,23.84-7.3,36.16-2.07a6.92,6.92,0,0,0,7.48-.69c11.21-7.31,23.79-10.51,37-11.66a164.72,164.72,0,0,1,35.09,1.17c23,2.94,46,5.81,68.95,9C223.51,31,235.32,33.56,247.29,35c.63.08,1.28.38,2,0"/></g></g></svg>