<svg xmlns="http://www.w3.org/2000/svg" viewBox="0 0 654.83 233.63"><defs><style>.cls-1{fill-rule:evenodd;}</style></defs><g id="Livello_2" data-name="Livello 2"><g id="Livello_1-2" data-name="Livello 1"><path class="cls-1" d="M167.18,125.18l-2.39-2.39c-4-4.08-4.17-4.11-7.41.57-8.82,12.74-11.36,27.15-10.83,42.26.31,8.75,2.26,17.18,6.83,24.79,4.29,7.13,11.11,9.88,19,7.81,6.07-1.6,9.84-5.81,12.35-11.28,3.76-8.21,3.79-16.78,2.09-25.45-2.78-14.13-10.05-25.82-19.62-36.31m395.47-46c-.65-1.6-2.18-2.07-3.4-2.78C534,61.86,511.53,43.58,489,25.4a31.85,31.85,0,0,1-8.08-8.84c-2.19-3.86-2.73-7.87-.23-11.77S487-.33,491.41.07a32.8,32.8,0,0,1,9.43,2.5c50.39,20.55,97.55,46.53,138.63,82.7,4.15,3.66,8.2,7.4,11.26,12.07,8.2,12.49,3.72,26.9-10.15,31.43C609.34,139,578,148.88,546.24,157.42c-22.2,6-44.89,9.58-67.71,12.32a47.47,47.47,0,0,1-13.88.06c-4.14-.71-7.87-2.26-9.12-6.75s1-8,4.31-10.89c4-3.43,8.68-5.5,13.57-7.16,15.68-5.34,31.72-9.51,47.63-14.1,14.58-4.21,29.21-8.28,43.81-12.42,1.19-.34,2.35-.78,4.11-1.37-1.87-1.22-3.51-1-5-1.21-32.62-4.24-65.5-5.61-98.17-9.17-45.89-5-91.65-11.2-137.41-17.31-27.38-3.65-54.83-6.56-82.53-4.63-18.92,1.32-37.33,4.75-54.63,12.89-4.14,1.95-4.17,2-.91,5.19,16.3,16.16,27.7,35,31,58,2.76,19-.31,36.93-12.37,52.35-22.21,28.42-64.89,26.84-85.55-2.94A79.21,79.21,0,0,1,110.57,178c-4.68-27.52-.83-53.5,15-77.06,2-3,.82-3.72-1.85-4.57-23.33-7.46-43.85-2.55-61.57,14.11-26.65,25-42,55.25-41.81,92.47a104.27,104.27,0,0,0,1.07,12.36c.63,5-.88,8.22-4.29,9.37s-7.08-.54-9.48-5A64.17,64.17,0,0,1,0,190.1c-.61-33,9-62.52,30.53-87.88C39.3,91.93,49,82.66,60.72,75.8c26.36-15.47,53.82-16.47,81.63-4.68,6.57,2.78,11,2.31,16.88-1.56,25.29-16.5,53.71-23.72,83.49-26.31,26.52-2.31,52.91-.71,79.22,2.65C373.84,52.52,425.75,59,477.57,66.19c26.95,3.73,53.6,9.56,80.64,12.9,1.42.18,2.89.86,4.44.06"/></g></g></svg>