<?xml version="1.0" encoding="utf-8"?>
<!-- Generator: Adobe Illustrator 25.0.0, SVG Export Plug-In . SVG Version: 6.00 Build 0)  -->
<svg version="1.1" id="Livello_1" xmlns="http://www.w3.org/2000/svg" xmlns:xlink="http://www.w3.org/1999/xlink" x="0px" y="0px"
	 viewBox="0 0 22 18" style="enable-background:new 0 0 22 18;" xml:space="preserve">
<g>
	<path d="M19,18H3c-1.7,0-3-1.3-3-3V3c0-1.7,1.3-3,3-3h16c1.7,0,3,1.3,3,3v12C22,16.7,20.7,18,19,18z M3,2C2.4,2,2,2.4,2,3v12
		c0,0.6,0.4,1,1,1h16c0.6,0,1-0.4,1-1V3c0-0.6-0.4-1-1-1H3z"/>
	<path d="M11,11c-0.2,0-0.4-0.1-0.6-0.2l-10-7C0,3.5-0.1,2.9,0.2,2.4C0.5,2,1.1,1.9,1.6,2.2L11,8.8l9.4-6.6c0.5-0.3,1.1-0.2,1.4,0.2
		c0.3,0.5,0.2,1.1-0.2,1.4l-10,7C11.4,10.9,11.2,11,11,11z"/>
</g>
</svg>
