



<svg xmlns="http://www.w3.org/2000/svg" viewBox="0 0 166.08 162.56">
<path class="cls-1" d="M26.22,162.55a1.91,1.91,0,0,1-1.9-1.62c-1.79-11.34-.74-23.64,3.3-38.73A197,197,0,0,1,39.79,89.48C46.64,75,56.9,54.83,71,37.41a192.5,192.5,0,0,1-24.1-4.21l-2.44-.58A140,140,0,0,1,25.07,27a23.52,23.52,0,0,1-2.25,11.62c-4.15,8.48-13.39,12.76-20.57,14a1.93,1.93,0,1,1-.63-3.81h0c6.28-1,14.23-4.67,17.74-11.82a20.8,20.8,0,0,0,1.71-11.67c-7.79-3.75-14.37-9.22-17.41-18A6.67,6.67,0,0,1,3.23,3.7,4.21,4.21,0,0,1,6,.19C9.7-1,14.72,3.53,15.69,4.45a28.75,28.75,0,0,1,7.49,12.44,49.5,49.5,0,0,1,1.4,5.74c6.6,2.89,14.05,4.66,20.74,6.24l2.45.58A187,187,0,0,0,74,33.84c1.65-1.93,3.35-3.82,5.12-5.66C83.46,23.6,90.57,17.9,99.48,16.8c7.29-.9,16.27,1.71,19.35,8.42a6.6,6.6,0,0,1-1,7.35c-2.12,2.28-5.46,3-8.15,3.64l-.94.21A71.68,71.68,0,0,1,98.66,38a126.07,126.07,0,0,1-19.53.07c-1.17-.08-2.33-.16-3.5-.26C61,55.36,50.33,76.23,43.31,91.11a192.14,192.14,0,0,0-11.88,32.08c-3.9,14.56-4.92,26.36-3.22,37.14a2,2,0,0,1-1.61,2.2A1,1,0,0,1,26.22,162.55ZM78.74,34.22h.59a122.33,122.33,0,0,0,19-.06,70.89,70.89,0,0,0,9.59-1.53l1-.22c2.28-.52,4.87-1.1,6.17-2.5a2.8,2.8,0,0,0,.3-3.12c-2.28-5-9.61-6.91-15.37-6.2-7.78,1-14.14,6.09-18.1,10.22C80.8,32,79.76,33.13,78.74,34.22ZM7.21,3.86a1.65,1.65,0,0,0-.2.59A3.66,3.66,0,0,0,7.3,6c2.28,6.58,7,11.11,12.87,14.41-.2-.79-.42-1.59-.68-2.41A24.79,24.79,0,0,0,13,7.24C10.76,5.12,7.93,3.58,7.21,3.85Z"/>
<path class="cls-1" d="M27.37,89.37a2,2,0,0,1-1.28-.49,1.93,1.93,0,0,1-.17-2.71h0c4.44-5,24.54-9.78,30.29-7.21a1.93,1.93,0,0,1-1.58,3.52c-3.81-1.72-22.2,2.22-25.82,6.24A1.94,1.94,0,0,1,27.37,89.37Z"/>
<path class="cls-1" d="M59.76,93a1.91,1.91,0,0,1-1.66-3l4.43-7.38a1.93,1.93,0,0,1,3.31,2L61.43,92A2,2,0,0,1,59.76,93Z"/>
<path class="cls-1" d="M92.66,97a1.76,1.76,0,0,1-1-.28A1.91,1.91,0,0,1,91,94.13h0l4.44-7.4a1.93,1.93,0,0,1,3.35,1.92.11.11,0,0,0,0,.08l-4.46,7.41A2,2,0,0,1,92.66,97Z"/>
<path class="cls-1" d="M79.29,101.52a9.54,9.54,0,0,1-8.56-5.63.51.51,0,0,1-.07-.17C64.49,79.11,95.88,54.86,97.22,53.84a1.93,1.93,0,0,1,2.34,3.06c-8.47,6.48-29.48,25.8-25.32,37.39a5.66,5.66,0,0,0,6,3.3c2.14-.36,4.6-2.24,5.11-6.42a1.93,1.93,0,0,1,3.83.47c-.76,6.29-4.79,9.16-8.31,9.75A9.36,9.36,0,0,1,79.29,101.52Z"/>
<path class="cls-1" d="M94.83,121.58a1.77,1.77,0,0,1-.56-.09A1.91,1.91,0,0,1,93,119.13l8.86-31.67a1.93,1.93,0,0,1,3.71,1l-1.5,5.36c3.16-5.42,6.73-10,10.34-11.52a6.57,6.57,0,0,1,5.55,0c2.92,1.54,4.7,3.74,5.08,6.22a7.55,7.55,0,0,1-2.4,6.48c-1.23,1.87-4.77,4.44-10.51,2.15a1.93,1.93,0,0,1,1.42-3.58h0c4.22,1.68,5.73-.5,5.89-.75a2.48,2.48,0,0,1,.29-.37,4,4,0,0,0,1.48-3.34c-.18-1.23-1.27-2.46-3-3.36a2.7,2.7,0,0,0-2.32.09C108.5,89,99.48,111.72,96.63,120.21A1.94,1.94,0,0,1,94.83,121.58Z"/>
<path class="cls-1" d="M115,124.5a1.52,1.52,0,0,1-.56-.08,1.92,1.92,0,0,1-1.29-2.4L122,90.35a1.93,1.93,0,0,1,3.81.64,3.1,3.1,0,0,1-.1.36l-1.5,5.35c3.16-5.41,6.73-10,10.34-11.51a6.64,6.64,0,0,1,5.55,0c2.92,1.55,4.7,3.74,5.08,6.23a7.51,7.51,0,0,1-2.4,6.47c-1.23,1.87-4.77,4.45-10.51,2.15a1.93,1.93,0,0,1,1.44-3.58c4.2,1.69,5.72-.49,5.88-.75a2.48,2.48,0,0,1,.29-.37A4,4,0,0,0,141.35,92c-.18-1.23-1.27-2.45-3-3.36a2.7,2.7,0,0,0-2.32.09c-7.37,3.15-16.39,25.88-19.24,34.38A1.94,1.94,0,0,1,115,124.5Z"/>
<path class="cls-1" d="M152.18,102.29a8.9,8.9,0,0,1-1.46-.12c-3.62-.58-7.53-3.85-7.53-8.12a2,2,0,0,1,1-1.71,1.92,1.92,0,0,1-.88-2.46,11.32,11.32,0,0,1,9.3-6.51A7.15,7.15,0,0,1,158,85.31a10.33,10.33,0,0,1,3.12,7.21,9.94,9.94,0,0,1-3.25,7.61A8.57,8.57,0,0,1,152.18,102.29Zm-6.16-10A2,2,0,0,1,147,94c0,2.07,2.26,4,4.28,4.31a4.75,4.75,0,0,0,4-1.12,6,6,0,0,0,2-4.62,6.47,6.47,0,0,0-1.87-4.47,3.29,3.29,0,0,0-2.54-.93,7.52,7.52,0,0,0-6,4.17,1.9,1.9,0,0,1-.87,1Z"/>
<circle class="cls-1" cx="66.55" cy="78.94" r="2.35"/>
<circle class="cls-1" cx="99.87" cy="82.31" r="2.35"/>
<circle class="cls-1" cx="164.19" cy="99.49" r="1.89"/>
</svg>