<svg xmlns="http://www.w3.org/2000/svg" viewBox="0 0 1080 1080"><defs><style>.cls-1{fill:#000000;}.cls-2{fill:none;stroke:#000000;stroke-linecap:round;stroke-miterlimit:10;stroke-width:26px;}</style></defs><g id="Livello_2" data-name="Livello 2"><path class="cls-1" d="M386.88,656.26a20.4,20.4,0,0,1,3.49-2.22c.94-.52,2.05-1.12,3.33-1.77l4.35-2a181.19,181.19,0,0,1,26.2-9.31A224.32,224.32,0,0,1,461,634.18c6.7-.73,13.61-1.06,20.58-1.27s14,0,21,.28c28,1.34,55.07,6.46,74.94,11.14,9.95,2.33,18.15,4.49,23.86,6.07l9,2.5-9.32-1.49c-5.94-.94-14.44-2.18-24.66-3.41-20.42-2.47-47.89-4.55-75.1-2.94-6.8.36-13.57,1-20.2,1.84s-13.1,1.93-19.32,3.17a233.86,233.86,0,0,0-33.31,9.4,215.61,215.61,0,0,0-22.73,9.86c-2.76,1.32-4.93,2.5-6.52,3.29a15.09,15.09,0,0,1-2.88,1.25c-2.77,1-8.08,0-10.93-4.81a10.72,10.72,0,0,1-1.09-7.55A10,10,0,0,1,386.88,656.26Z"/><path class="cls-1" d="M453.29,556.1a19.35,19.35,0,0,1,3.84-1.61c1-.35,2.22-.78,3.6-1.19l4.68-1.17L471,550.8c2-.45,4.17-1,6.5-1.36l7.32-1.21c2.56-.39,5.22-.92,8-1.16,22.32-2.79,51.37-3.05,79.47.27,28.16,3,55.38,8.74,75.58,13.32,5.06,1.12,9.67,2.26,13.75,3.23s7.63,1.84,10.55,2.58l9.16,2.29-9.51-1.28c-3-.41-6.7-.89-10.92-1.41s-9-1.16-14.19-1.73c-20.8-2.41-48.66-5.17-76.51-5.25A366.48,366.48,0,0,0,494.33,566c-5.1,1.13-9.76,2.29-13.93,3.23l-10.78,3c-1.51.43-2.9.75-4.09,1.14l-3.1,1a15.4,15.4,0,0,1-3.13.76c-3,.45-8.14-1.61-10-6.85S451,557.35,453.29,556.1Z"/><path class="cls-2" d="M258.12,476.35S405,476.4,431.73,332.5c2.78-15-1.13-34.57-8.06-47.76-11.54-21.95-37.93-29.18-60.75-21.94-14.71,4.66-27.36,15.06-35.51,28.16-31.72,51,32.25,93.88,71.88,111.79,113.94,51.51,247.34,43.26,359.44-8.89a476.72,476.72,0,0,0,68.94-39.32c-66.3,39.67-133,79.6-191.5,130.06-65.48,56.47-113.1,125.12-165.52,192.86-36,46.51-71.4,93.47-107.52,139.87q-27.4,35.2-55.49,69.87c-17.78,21.84-59.44,67-58.42,66.8.63.2,69.61-85.62,111.54-121.32,33.42-28.45,70.16-53.93,111.54-68.53,24.4-8.61,50.42-13.2,76.32-12.25,14.78.54,30.41,0,44.64,4.52,11.32,3.59,22,11.16,26.39,22.19,10.62,26.58-10.18,61.81-30.2,78.16-9.75,8-22.67,14-34.73,10.4C544,864,536.46,853.45,534.34,842.41s.36-22.48,4.26-33c19.75-53.36,74.51-79.5,121.64-104.07A1438.55,1438.55,0,0,1,894,608.58"/></g></svg>